<svg width="36" height="36" viewBox="0 0 36 36" fill="none" xmlns="http://www.w3.org/2000/svg">
<path d="M12 24C12.425 24 12.7815 23.856 13.0695 23.568C13.3575 23.28 13.501 22.924 13.5 22.5V7.5C13.5 7.075 13.356 6.719 13.068 6.432C12.78 6.145 12.424 6.001 12 6C11.576 5.999 11.22 6.143 10.932 6.432C10.644 6.721 10.5 7.077 10.5 7.5V22.5C10.5 22.925 10.644 23.2815 10.932 23.5695C11.22 23.8575 11.576 24.001 12 24ZM28.5 33H9C7.75 33 6.6875 32.5625 5.8125 31.6875C4.9375 30.8125 4.5 29.75 4.5 28.5V7.5C4.5 6.25 4.9375 5.1875 5.8125 4.3125C6.6875 3.4375 7.75 3 9 3H19.2C18.35 3.875 17.6875 4.8875 17.2125 6.0375C16.7375 7.1875 16.5 8.425 16.5 9.75C16.5 12.325 17.369 14.5375 19.107 16.3875C20.845 18.2375 22.976 19.2625 25.5 19.4625V24C25.5 24.825 25.2065 25.5315 24.6195 26.1195C24.0325 26.7075 23.326 27.001 22.5 27H9C8.575 27 8.219 27.144 7.932 27.432C7.645 27.72 7.501 28.076 7.5 28.5C7.499 28.924 7.643 29.2805 7.932 29.5695C8.221 29.8585 8.577 30.002 9 30H28.5V19.2375C29.05 19.1125 29.575 18.944 30.075 18.732C30.575 18.52 31.05 18.2635 31.5 17.9625V30C31.5 30.825 31.2065 31.5315 30.6195 32.1195C30.0325 32.7075 29.326 33.001 28.5 33ZM26.25 18C26.25 15.7 27.05 13.75 28.65 12.15C30.25 10.55 32.2 9.75 34.5 9.75C32.2 9.75 30.25 8.95 28.65 7.35C27.05 5.75 26.25 3.8 26.25 1.5C26.25 3.8 25.45 5.75 23.85 7.35C22.25 8.95 20.3 9.75 18 9.75C20.3 9.75 22.25 10.55 23.85 12.15C25.45 13.75 26.25 15.7 26.25 18Z" fill="#0068E5"/>
</svg>
