<svg width="37" height="36" viewBox="0 0 37 36" fill="none" xmlns="http://www.w3.org/2000/svg">
<path d="M18.3333 33C17.6833 33 17.0958 32.844 16.5708 32.532C16.0458 32.22 15.6333 31.801 15.3333 31.275C14.5083 31.275 13.8023 30.9815 13.2153 30.3945C12.6283 29.8075 12.3343 29.101 12.3333 28.275V22.95C10.8583 21.975 9.67675 20.6875 8.78875 19.0875C7.90075 17.4875 7.45725 15.75 7.45825 13.875C7.45825 10.85 8.51475 8.2815 10.6278 6.1695C12.7408 4.0575 15.3093 3.001 18.3333 3C21.3573 2.999 23.9263 4.0555 26.0403 6.1695C28.1543 8.2835 29.2103 10.852 29.2083 13.875C29.2083 15.8 28.7643 17.55 27.8763 19.125C26.9883 20.7 25.8073 21.975 24.3333 22.95V28.275C24.3333 29.1 24.0398 29.8065 23.4528 30.3945C22.8658 30.9825 22.1593 31.276 21.3333 31.275C21.0333 31.8 20.6208 32.219 20.0958 32.532C19.5708 32.845 18.9833 33.001 18.3333 33ZM15.3333 28.275H21.3333V26.925H15.3333V28.275ZM15.3333 25.425H21.3333V24H15.3333V25.425ZM19.4583 21V16.95L21.9708 14.4375C22.1958 14.2125 22.3083 13.95 22.3083 13.65C22.3083 13.35 22.1958 13.0875 21.9708 12.8625C21.7458 12.6375 21.4833 12.525 21.1833 12.525C20.8833 12.525 20.6208 12.6375 20.3958 12.8625L18.3333 14.925L16.2708 12.8625C16.0458 12.6375 15.7833 12.525 15.4833 12.525C15.1833 12.525 14.9208 12.6375 14.6958 12.8625C14.4708 13.0875 14.3583 13.35 14.3583 13.65C14.3583 13.95 14.4708 14.2125 14.6958 14.4375L17.2083 16.95V21H19.4583Z" fill="#B8C5D4"/>
</svg>
