<svg width="37" height="36" viewBox="0 0 37 36" fill="none" xmlns="http://www.w3.org/2000/svg">
<path d="M15.6667 21H21.6667V18H15.6667V21ZM15.6667 16.5H27.6667V13.5H15.6667V16.5ZM15.6667 12H27.6667V9H15.6667V12ZM12.6667 27C11.8417 27 11.1357 26.7065 10.5487 26.1195C9.96169 25.5325 9.66769 24.826 9.66669 24V6C9.66669 5.175 9.96069 4.469 10.5487 3.882C11.1367 3.295 11.8427 3.001 12.6667 3H30.6667C31.4917 3 32.1982 3.294 32.7862 3.882C33.3742 4.47 33.6677 5.176 33.6667 6V24C33.6667 24.825 33.3732 25.5315 32.7862 26.1195C32.1992 26.7075 31.4927 27.001 30.6667 27H12.6667ZM6.66669 33C5.84169 33 5.13569 32.7065 4.54869 32.1195C3.96169 31.5325 3.66769 30.826 3.66669 30V9H6.66669V30H27.6667V33H6.66669Z" fill="#0068E5"/>
</svg>
