<svg width="36" height="36" viewBox="0 0 36 36" fill="none" xmlns="http://www.w3.org/2000/svg">
<path d="M9 33C8.175 33 7.469 32.7065 6.882 32.1195C6.295 31.5325 6.001 30.826 6 30V12C6 11.175 6.294 10.469 6.882 9.882C7.47 9.295 8.176 9.001 9 9H12C12 7.35 12.5875 5.9375 13.7625 4.7625C14.9375 3.5875 16.35 3 18 3C19.65 3 21.0625 3.5875 22.2375 4.7625C23.4125 5.9375 24 7.35 24 9H27C27.825 9 28.5315 9.294 29.1195 9.882C29.7075 10.47 30.001 11.176 30 12V30C30 30.825 29.7065 31.5315 29.1195 32.1195C28.5325 32.7075 27.826 33.001 27 33H9ZM15 9H21C21 8.175 20.7065 7.469 20.1195 6.882C19.5325 6.295 18.826 6.001 18 6C17.174 5.999 16.468 6.293 15.882 6.882C15.296 7.471 15.002 8.177 15 9ZM22.5 16.5C22.925 16.5 23.2815 16.356 23.5695 16.068C23.8575 15.78 24.001 15.424 24 15V12H21V15C21 15.425 21.144 15.7815 21.432 16.0695C21.72 16.3575 22.076 16.501 22.5 16.5ZM13.5 16.5C13.925 16.5 14.2815 16.356 14.5695 16.068C14.8575 15.78 15.001 15.424 15 15V12H12V15C12 15.425 12.144 15.7815 12.432 16.0695C12.72 16.3575 13.076 16.501 13.5 16.5Z" fill="#B8C5D4"/>
</svg>
