<?xml version="1.0" encoding="UTF-8"?>
<svg id="Layer_1" data-name="Layer 1" xmlns="http://www.w3.org/2000/svg" viewBox="0 0 161 32">
  <defs>
    <style>
      .cls-1 {
        fill: #0068e5;
      }

      .cls-2 {
        fill: #303030;
      }

      .cls-3 {
        fill: #89c1ef;
      }
    </style>
  </defs>
  <g>
    <path class="cls-3" d="M28.48,18.44l-2.07-2.07c-.26-.26-.69-.26-.96,0-.13.13-.2.3-.2.48H7.21c0-.17-.07-.35-.2-.48-.26-.26-.69-.26-.96,0l-2.07,2.07c-.26.26-.26.69,0,.96l11.76,11.76c.13.13.3.2.48.2s.35-.07.48-.2l11.76-11.76c.26-.26.26-.69,0-.96Z"/>
    <path class="cls-1" d="M28.56,16.56s0-.02.02-.03c.02-.03.03-.06.05-.09,0-.01,0-.03.01-.04,0-.03.02-.06.03-.09,0-.04.01-.09.01-.13s0-.09-.01-.13c0-.03-.02-.06-.03-.09,0-.01,0-.03-.01-.04-.01-.03-.03-.06-.05-.09,0,0,0-.02-.02-.03-.02-.04-.05-.07-.08-.1l-5.07-5.07c-.26-.26-.69-.26-.96,0-.26.26-.26.69,0,.96l3.92,3.92H6.1L18.8,2.81c1.09-1.09,2.87-1.09,3.96,0,1.09,1.09,1.09,2.87.02,3.94l-5.92,5.92c-.56.56-1.46.56-2.02,0-.55-.55-.55-1.46,0-2.02l3.82-3.82c.26-.26.26-.69,0-.96-.26-.26-.69-.26-.96,0l-3.82,3.82c-1.08,1.08-1.08,2.85,0,3.93,1.08,1.08,2.85,1.08,3.93,0l5.83-5.83.07-.07c1.61-1.62,1.61-4.25,0-5.87-1.62-1.62-4.25-1.62-5.87,0L3.99,15.7s-.06.07-.08.1c0,0,0,.02-.02.03-.02.03-.03.06-.05.09,0,.01,0,.03-.01.04,0,.03-.02.06-.03.09,0,.04-.01.09-.01.13s0,.09.01.13c0,.03.02.06.03.09,0,.01,0,.03.01.04.01.03.03.06.05.09,0,0,0,.02.02.03.02.04.05.07.08.1l11.76,11.76c.13.13.3.2.48.2s.35-.07.48-.2l11.76-11.76s.06-.07.08-.1Z"/>
  </g>
  <g>
    <path class="cls-2" d="M40.85,15.89v8.25h-4.74V4.3h4.74v7.68l5.74-7.52h5.57l-7.22,9.3,7.62,10.38h-5.77l-5.94-8.25Z"/>
    <path class="cls-2" d="M60.8,9.5c4.11,0,6.62,2.37,6.62,6.2v8.44h-4.51v-8.28c0-1.54-.77-2.4-2.11-2.4s-2.11.86-2.11,2.4v8.28h-4.51v-8.44c0-3.83,2.51-6.2,6.62-6.2Z"/>
    <path class="cls-2" d="M70.26,16.62c0-4.39,3.6-7.52,8.08-7.52s8.08,3.13,8.08,7.52-3.6,7.52-8.08,7.52-8.08-3.13-8.08-7.52ZM78.33,20.18c2.03,0,3.57-1.43,3.57-3.56s-1.54-3.56-3.57-3.56-3.57,1.43-3.57,3.56,1.54,3.56,3.57,3.56Z"/>
    <path class="cls-2" d="M87.05,9.85h4.71l2.63,8.6,2.77-8.6h4.17l2.74,8.3,2.68-8.3h4.6l-5.08,14.29h-4.14l-2.97-8.38-2.94,8.38h-4.42l-4.74-14.29Z"/>
    <path class="cls-2" d="M117.71,4.3h4.65l6.14,9.76,6.05-9.76h4.57v19.84h-4.45v-12.18l-4.8,7.76h-2.85l-4.85-7.82v12.24h-4.45V4.3Z"/>
    <path class="cls-2" d="M142.01,16.7c0-4.5,3.43-7.55,7.82-7.55,4.14,0,7.93,2.67,7.31,8.65h-10.87c.43,1.7,1.88,2.72,3.88,2.72,1.6,0,2.97-.65,4.08-1.97l2.91,2.29c-1.68,2.1-4.08,3.29-7.08,3.29-4.82,0-8.05-3.07-8.05-7.44ZM152.97,14.87c-.34-1.46-1.48-2.26-3.17-2.26s-3,.89-3.48,2.26h6.65Z"/>
  </g>
</svg>