<svg xmlns="http://www.w3.org/2000/svg" id="Layer_1" data-name="Layer 1" viewBox="0 0 161 32"><defs><style>.cls-2{fill:#303030}</style></defs><path d="m28.48 18.44-2.07-2.07a.688.688 0 0 0-.96 0c-.13.13-.2.3-.2.48H7.21a.69.69 0 0 0-.2-.48.688.688 0 0 0-.96 0l-2.07 2.07c-.26.26-.26.69 0 .96l11.76 11.76a.673.673 0 0 0 .96 0L28.46 19.4c.26-.26.26-.69 0-.96Z" style="fill:#89c1ef"/><path d="M28.56 16.56s0-.02.02-.03c.02-.03.03-.06.05-.09 0-.01 0-.03.01-.04 0-.03.02-.06.03-.09 0-.04.01-.09.01-.13s0-.09-.01-.13c0-.03-.02-.06-.03-.09 0-.01 0-.03-.01-.04-.01-.03-.03-.06-.05-.09 0 0 0-.02-.02-.03-.02-.04-.05-.07-.08-.1l-5.07-5.07a.688.688 0 0 0-.96 0c-.26.26-.26.69 0 .96l3.92 3.92H6.1l12.7-12.7a2.807 2.807 0 0 1 3.96 0c1.09 1.09 1.09 2.87.02 3.94l-5.92 5.92c-.56.56-1.46.56-2.02 0-.55-.55-.55-1.46 0-2.02l3.82-3.82c.26-.26.26-.69 0-.96a.688.688 0 0 0-.96 0l-3.82 3.82a2.788 2.788 0 0 0 0 3.93 2.788 2.788 0 0 0 3.93 0l5.83-5.83.07-.07a4.17 4.17 0 0 0 0-5.87 4.152 4.152 0 0 0-5.87 0L3.99 15.7s-.06.07-.08.1c0 0 0 .02-.02.03-.02.03-.03.06-.05.09 0 .01 0 .03-.01.04 0 .03-.02.06-.03.09 0 .04-.01.09-.01.13s0 .09.01.13c0 .03.02.06.03.09 0 .01 0 .03.01.04.01.03.03.06.05.09 0 0 0 .02.02.03.02.04.05.07.08.1l11.76 11.76a.673.673 0 0 0 .96 0l11.76-11.76s.06-.07.08-.1Z" style="fill:#0068e5"/><path d="M40.85 15.89v8.25h-4.74V4.3h4.74v7.68l5.74-7.52h5.57l-7.22 9.3 7.62 10.38h-5.77l-5.94-8.25ZM60.8 9.5c4.11 0 6.62 2.37 6.62 6.2v8.44h-4.51v-8.28c0-1.54-.77-2.4-2.11-2.4s-2.11.86-2.11 2.4v8.28h-4.51V15.7c0-3.83 2.51-6.2 6.62-6.2ZM70.26 16.62c0-4.39 3.6-7.52 8.08-7.52s8.08 3.13 8.08 7.52-3.6 7.52-8.08 7.52-8.08-3.13-8.08-7.52Zm8.07 3.56c2.03 0 3.57-1.43 3.57-3.56s-1.54-3.56-3.57-3.56-3.57 1.43-3.57 3.56 1.54 3.56 3.57 3.56ZM87.05 9.85h4.71l2.63 8.6 2.77-8.6h4.17l2.74 8.3 2.68-8.3h4.6l-5.08 14.29h-4.14l-2.97-8.38-2.94 8.38H91.8L87.06 9.85ZM117.71 4.3h4.65l6.14 9.76 6.05-9.76h4.57v19.84h-4.45V11.96l-4.8 7.76h-2.85l-4.85-7.82v12.24h-4.45V4.3ZM142.01 16.7c0-4.5 3.43-7.55 7.82-7.55 4.14 0 7.93 2.67 7.31 8.65h-10.87c.43 1.7 1.88 2.72 3.88 2.72 1.6 0 2.97-.65 4.08-1.97l2.91 2.29c-1.68 2.1-4.08 3.29-7.08 3.29-4.82 0-8.05-3.07-8.05-7.44Zm10.96-1.83c-.34-1.46-1.48-2.26-3.17-2.26s-3 .89-3.48 2.26h6.65Z" class="cls-2"/></svg>