<svg width="24" height="25" viewBox="0 0 24 25" fill="none" xmlns="http://www.w3.org/2000/svg">
<g clip-path="url(#clip0_4538_2660)">
<path d="M13.73 21.8018C13.5542 22.1048 13.3018 22.3564 12.9982 22.5313C12.6946 22.7062 12.3504 22.7982 12 22.7982C11.6496 22.7982 11.3054 22.7062 11.0018 22.5313C10.6982 22.3564 10.4458 22.1048 10.27 21.8018M18 8.80176C18 7.21046 17.3679 5.68434 16.2426 4.55912C15.1174 3.4339 13.5913 2.80176 12 2.80176C10.4087 2.80176 8.88258 3.4339 7.75736 4.55912C6.63214 5.68434 6 7.21046 6 8.80176C6 15.8018 3 17.8018 3 17.8018H21C21 17.8018 18 15.8018 18 8.80176Z" stroke="#89C1EF" stroke-width="2.5" stroke-linecap="round" stroke-linejoin="round"/>
</g>
<defs>
<clipPath id="clip0_4538_2660">
<rect width="24" height="24" fill="white" transform="translate(0 0.801758)"/>
</clipPath>
</defs>
</svg>
