<svg width="18" height="19" viewBox="0 0 18 19" fill="none" xmlns="http://www.w3.org/2000/svg">
<g id="Group">
<path id="Vector" d="M6.58925 3.54008C7.08759 2.08175 9.10259 2.03758 9.69342 3.40758L9.74342 3.54092L10.4159 5.50758C10.57 5.95861 10.8191 6.37134 11.1463 6.71793C11.4735 7.06453 11.8712 7.33692 12.3126 7.51675L12.4934 7.58425L14.4601 8.25592C15.9184 8.75425 15.9626 10.7692 14.5934 11.3601L14.4601 11.4101L12.4934 12.0826C12.0422 12.2366 11.6293 12.4856 11.2826 12.8128C10.9359 13.14 10.6633 13.5378 10.4834 13.9792L10.4159 14.1592L9.74425 16.1267C9.24592 17.5851 7.23092 17.6292 6.64092 16.2601L6.58925 16.1267L5.91759 14.1601C5.76357 13.7089 5.51456 13.296 5.18737 12.9493C4.86018 12.6025 4.46241 12.33 4.02092 12.1501L3.84092 12.0826L1.87425 11.4109C0.415087 10.9126 0.37092 8.89758 1.74092 8.30758L1.87425 8.25592L3.84092 7.58425C4.29195 7.43013 4.70468 7.18108 5.05127 6.85389C5.39787 6.5267 5.67026 6.12899 5.85009 5.68758L5.91759 5.50758L6.58925 3.54008ZM14.8334 0.666748C14.9893 0.666748 15.1421 0.71048 15.2744 0.792974C15.4067 0.875469 15.5132 0.993417 15.5818 1.13341L15.6218 1.23091L15.9134 2.08592L16.7693 2.37758C16.9255 2.43066 17.0625 2.52893 17.1628 2.65993C17.2631 2.79093 17.3223 2.94876 17.3328 3.11343C17.3434 3.2781 17.3048 3.44219 17.2219 3.5849C17.1391 3.72762 17.0158 3.84253 16.8676 3.91508L16.7693 3.95508L15.9143 4.24675L15.6226 5.10258C15.5694 5.25877 15.4711 5.39566 15.34 5.49591C15.209 5.59615 15.0511 5.65524 14.8865 5.66568C14.7218 5.67613 14.5577 5.63745 14.4151 5.55456C14.2724 5.47168 14.1576 5.3483 14.0851 5.20008L14.0451 5.10258L13.7534 4.24758L12.8976 3.95591C12.7414 3.90284 12.6044 3.80457 12.5041 3.67357C12.4037 3.54257 12.3446 3.38473 12.334 3.22006C12.3235 3.0554 12.3621 2.89131 12.4449 2.74859C12.5277 2.60588 12.6511 2.49097 12.7993 2.41842L12.8976 2.37841L13.7526 2.08675L14.0443 1.23091C14.1004 1.06627 14.2068 0.923339 14.3483 0.822164C14.4898 0.720989 14.6595 0.666644 14.8334 0.666748Z" fill="#454C53"/>
</g>
</svg>
