<svg width="24" height="24" viewBox="0 0 24 24" fill="none" xmlns="http://www.w3.org/2000/svg">
<path d="M14.8461 5.84996C14.9577 5.73851 15.0462 5.60617 15.1066 5.46049C15.1669 5.31481 15.198 5.15866 15.198 5.00096C15.198 4.84326 15.1669 4.68711 15.1066 4.54143C15.0462 4.39575 14.9577 4.26341 14.8461 4.15196L12.3461 1.65196C12.1209 1.42679 11.8155 1.30029 11.4971 1.30029C11.1787 1.30029 10.8733 1.42679 10.6481 1.65196C10.4229 1.87713 10.2964 2.18252 10.2964 2.50096C10.2964 2.8194 10.4229 3.12479 10.6481 3.34996L11.1441 3.84396C9.67331 3.9978 8.27151 4.5465 7.08713 5.43198C5.90274 6.31745 4.97984 7.50673 4.41617 8.87389C3.8525 10.241 3.66904 11.7352 3.8852 13.1981C4.10136 14.661 4.70911 16.0382 5.64409 17.184C5.84539 17.4306 6.13642 17.5872 6.45317 17.6193C6.76992 17.6513 7.08644 17.5563 7.33309 17.355C7.57974 17.1537 7.73632 16.8626 7.76839 16.5459C7.80046 16.2291 7.70539 15.9126 7.50409 15.666C6.86305 14.8804 6.43914 13.9405 6.27462 12.94C6.11011 11.9396 6.21074 10.9134 6.56649 9.96397C6.92223 9.01451 7.52066 8.17489 8.30209 7.52884C9.08353 6.88279 10.0207 6.45287 11.0201 6.28196L10.6481 6.65196C10.4229 6.87713 10.2964 7.18252 10.2964 7.50096C10.2964 7.8194 10.4229 8.12479 10.6481 8.34996C10.8733 8.57513 11.1787 8.70163 11.4971 8.70163C11.8155 8.70163 12.1209 8.57513 12.3461 8.34996L14.8461 5.84996ZM16.2481 6.30996C16.1333 6.41852 16.041 6.54869 15.9767 6.69298C15.9123 6.83728 15.8771 6.99287 15.873 7.15082C15.8689 7.30877 15.896 7.46598 15.9529 7.61341C16.0097 7.76085 16.0951 7.89561 16.2041 8.00996C16.9275 8.772 17.4303 9.71624 17.6588 10.7418C17.8873 11.7674 17.8329 12.8357 17.5014 13.8328C17.1699 14.8299 16.5739 15.7181 15.7768 16.4028C14.9798 17.0874 14.0117 17.5427 12.9761 17.72L13.3461 17.35C13.5713 17.1248 13.6978 16.8194 13.6978 16.501C13.6978 16.1825 13.5713 15.8771 13.3461 15.652C13.1209 15.4268 12.8155 15.3003 12.4971 15.3003C12.1786 15.3003 11.8733 15.4268 11.6481 15.652L9.14809 18.152C9.03652 18.2634 8.948 18.3958 8.88762 18.5414C8.82723 18.6871 8.79614 18.8433 8.79614 19.001C8.79614 19.1587 8.82723 19.3148 8.88762 19.4605C8.948 19.6062 9.03652 19.7385 9.14809 19.85L11.6481 22.35C11.8733 22.5751 12.1786 22.7016 12.4971 22.7016C12.8155 22.7016 13.1209 22.5751 13.3461 22.35C13.5713 22.1248 13.6978 21.8194 13.6978 21.501C13.6978 21.1825 13.5713 20.8771 13.3461 20.652L12.8501 20.156C14.3725 19.9965 15.82 19.4141 17.0286 18.4747C18.2372 17.5352 19.1586 16.2762 19.6887 14.8401C20.2188 13.4041 20.3364 11.8483 20.028 10.3489C19.7197 8.84949 18.9978 7.46633 17.9441 6.35596C17.725 6.12531 17.4232 5.9911 17.1052 5.98285C16.7872 5.9746 16.4789 6.09098 16.2481 6.30996Z" fill="#B8C5D4"/>
</svg>
